<svg width="18" height="11" viewBox="0 0 18 11" xmlns="http://www.w3.org/2000/svg">
<path d="M3.4882e-07 1.39435C4.45991e-07 1.7825 0.139769 2.10098 0.399336 2.35975L7.87687 9.9934C8.21631 10.3318 8.56573 10.501 8.99501 10.501C9.4243 10.501 9.7837 10.3417 10.1131 9.9934L17.6007 2.35974C17.8602 2.09102 18 1.77254 18 1.39434C18 0.627991 17.381 0.000976717 16.6123 0.00097691C16.2329 0.000977005 15.8735 0.160219 15.594 0.438892L8.99501 7.20667L2.40599 0.438895C2.12646 0.160222 1.76706 0.000980626 1.38769 0.000980721C0.618969 0.000980914 1.56969e-07 0.627995 3.4882e-07 1.39435Z"/>
</svg>
