<svg width="24" height="24" viewBox="0 0 24 24" fill="none" xmlns="http://www.w3.org/2000/svg">
<path fill-rule="evenodd" clip-rule="evenodd" d="M15.3333 6.00008V5.33341C15.3333 4.96522 15.6318 4.66675 16 4.66675C16.3682 4.66675 16.6667 4.96522 16.6667 5.33341V6.00008H18.6667C19.4029 6.00008 20 6.59722 20 7.33342V18.0001C20 18.7363 19.4029 19.3334 18.6667 19.3334H5.33333C4.59714 19.3334 4 18.7363 4 18.0001V10.6667V7.33342C4 6.59722 4.59714 6.00008 5.33333 6.00008H7.33333V5.33341C7.33333 4.96522 7.63181 4.66675 8 4.66675C8.36819 4.66675 8.66667 4.96522 8.66667 5.33341V6.00008H15.3333ZM5.33333 11.3334V18.0001H18.6667L18.6667 11.3334H5.33333ZM18.6667 10.0001L18.6667 7.33342H16.6667V8.00008C16.6667 8.36827 16.3682 8.66675 16 8.66675C15.6318 8.66675 15.3333 8.36827 15.3333 8.00008V7.33342H8.66667V8.00008C8.66667 8.36827 8.36819 8.66675 8 8.66675C7.63181 8.66675 7.33333 8.36827 7.33333 8.00008V7.33342H5.33333V10.0001H18.6667Z" fill="#818E9E"/>
</svg>
