<svg width="25" height="25" viewBox="0 0 25 25" fill="none" xmlns="http://www.w3.org/2000/svg">
<path fill-rule="evenodd" clip-rule="evenodd" d="M14.0211 2.0069C10.2863 2.22063 7.05146 4.23492 5.2765 7.45199C4.46086 8.93027 4.04904 10.4566 4.00533 12.1634C3.97497 13.3499 4.07202 14.1984 4.35644 15.2325C5.3914 18.9959 8.349 21.8467 12.1555 22.7498C12.9877 22.9472 13.4884 23 14.5299 23C15.8049 23 16.6105 22.8784 17.7522 22.5138C18.532 22.2648 19.5646 21.7838 20.0103 21.462C20.6727 20.9838 20.4611 19.8943 19.6642 19.6801C19.3625 19.599 19.1479 19.6566 18.4922 19.9948C17.5649 20.4729 16.8344 20.7173 15.8 20.8954C15.2141 20.9962 13.8058 20.9964 13.2155 20.8957C11.3541 20.5781 9.83081 19.8017 8.52534 18.505C5.26662 15.2684 5.20158 10.0354 8.37885 6.72178C10.6558 4.34723 14.0473 3.49668 17.1586 4.52001C18.4636 4.94923 19.6146 5.66875 20.5732 6.65464C21.2812 7.38282 21.7164 7.99974 22.1406 8.87653C23.0201 10.6942 23.2189 12.7197 22.7102 14.6818C22.5498 15.3005 22.4497 15.5235 22.2198 15.7742C21.4432 16.621 20.0203 16.3013 19.6773 15.2031C19.6009 14.9584 19.5966 14.7701 19.5966 11.6469C19.5966 9.18123 19.5836 8.30528 19.545 8.17522C19.4374 7.81208 18.971 7.47312 18.579 7.47312C18.0903 7.47312 17.5614 7.96386 17.5614 8.41734C17.5614 8.46826 17.4853 8.43648 17.2608 8.29172C16.2332 7.62921 14.9513 7.35299 13.7453 7.53417C12.645 7.69948 11.7247 8.16656 10.9206 8.96788C10.2316 9.6544 9.81122 10.3838 9.55759 11.3329C9.45146 11.73 9.44311 11.8219 9.44536 12.5648C9.44756 13.2902 9.45833 13.4064 9.55674 13.7691C10.1981 16.1321 12.321 17.7128 14.6995 17.5982C15.863 17.5422 16.8759 17.1536 17.7992 16.4091L17.9309 16.3028L18.0908 16.5753C18.4471 17.1825 19.1549 17.781 19.8214 18.0389C20.6798 18.371 21.6315 18.3638 22.4889 18.0186C23.2702 17.7041 23.9567 17.0434 24.3211 16.2554C24.5631 15.732 24.8218 14.7369 24.9455 13.8536C25.0178 13.3376 25.0182 11.718 24.9463 11.2127C24.6525 9.15025 23.9253 7.44248 22.6892 5.91197C21.0026 3.82365 18.4788 2.41441 15.8442 2.08989C15.2979 2.02258 14.4341 1.98328 14.0211 2.0069ZM15.0667 9.56101C15.5 9.64409 15.8105 9.76844 16.171 10.0033C16.5985 10.2818 17.0033 10.7296 17.2167 11.1606C17.4772 11.6862 17.5399 11.9666 17.5357 12.586C17.5326 13.0361 17.5156 13.1641 17.4206 13.4522C17.261 13.9364 17.0381 14.2909 16.65 14.6777C16.2618 15.0645 15.9061 15.2867 15.4202 15.4457C15.1312 15.5404 15.0028 15.5573 14.5511 15.5604C13.9296 15.5646 13.6482 15.5021 13.1208 15.2426C12.5065 14.9403 11.9043 14.2813 11.6664 13.6511C11.3407 12.7884 11.4168 11.7975 11.8681 11.0225C12.0652 10.6841 12.6232 10.1206 12.9508 9.9291C13.5958 9.55214 14.3428 9.42221 15.0667 9.56101Z" fill="#B9BCC6"/>
</svg>
